<svg xmlns="http://www.w3.org/2000/svg" xmlns:xlink="http://www.w3.org/1999/xlink" width="404.568" height="406.555" viewBox="0 0 404.568 406.555"><defs><filter id="a" x="78.944" y="0" width="325.625" height="406.555" filterUnits="userSpaceOnUse"><feOffset dy="3" input="SourceAlpha"/><feGaussianBlur stdDeviation="3" result="b"/><feFlood flood-opacity="0.161"/><feComposite operator="in" in2="b"/><feComposite in="SourceGraphic"/></filter><filter id="c" x="0" y="0" width="325.624" height="406.555" filterUnits="userSpaceOnUse"><feOffset dy="3" input="SourceAlpha"/><feGaussianBlur stdDeviation="3" result="d"/><feFlood flood-opacity="0.161"/><feComposite operator="in" in2="d"/><feComposite in="SourceGraphic"/></filter></defs><g transform="translate(-866.432 -177.876)"><g transform="matrix(1, 0, 0, 1, 866.43, 177.88)" filter="url(#a)"><path d="M178.594,482.083,121.363,647.915l-8.171,20.952L101.249,679.7H68.19L217.25,300.645,367.814,681.2H336.583l-13.661-12.333-9.5-20.952L258.476,482.083" transform="translate(23.75 -290.65)" fill="none" stroke="#840032" stroke-linecap="round" stroke-linejoin="round" stroke-width="8"/></g><g transform="matrix(1, 0, 0, 1, 866.43, 177.88)" filter="url(#c)"><path d="M178.594,482.083,121.363,647.915l-8.171,20.952L101.249,679.7H68.19L217.25,300.645,367.814,681.2H336.583l-13.661-12.333-9.5-20.952L258.476,482.083" transform="translate(-55.19 -290.65)" fill="none" stroke="#fff" stroke-linecap="round" stroke-linejoin="round" stroke-width="8"/></g></g></svg>