<svg xmlns="http://www.w3.org/2000/svg" xmlns:xlink="http://www.w3.org/1999/xlink" width="62.127" height="54.361" viewBox="0 0 62.127 54.361">
  <defs>
    <filter id="Path_19" x="15.074" y="0" width="47.053" height="54.361" filterUnits="userSpaceOnUse">
      <feOffset dy="3" input="SourceAlpha"/>
      <feGaussianBlur stdDeviation="3" result="blur"/>
      <feFlood flood-opacity="0.161"/>
      <feComposite operator="in" in2="blur"/>
      <feComposite in="SourceGraphic"/>
    </filter>
    <filter id="Path_18" x="0" y="0" width="47.053" height="54.361" filterUnits="userSpaceOnUse">
      <feOffset dy="3" input="SourceAlpha"/>
      <feGaussianBlur stdDeviation="3" result="blur-2"/>
      <feFlood flood-opacity="0.161"/>
      <feComposite operator="in" in2="blur-2"/>
      <feComposite in="SourceGraphic"/>
    </filter>
  </defs>
  <g id="Group_18" data-name="Group 18" transform="translate(-25.432 -15.876)">
    <rect id="Rectangle_11" data-name="Rectangle 11" width="53.452" height="23.757" transform="matrix(0.891, -0.454, 0.454, 0.891, 25.825, 46.017)" fill="#002642"/>
    <g id="Group_9" data-name="Group 9" transform="translate(35.432 22.876)">
      <g transform="matrix(1, 0, 0, 1, -10, -7)" filter="url(#Path_19)">
        <path id="Path_19-2" data-name="Path 19" d="M78.158,317.028,72.991,332l-.738,1.892-1.078.978H68.19l13.459-34.225,13.595,34.361h-2.82l-1.234-1.114L90.332,332l-4.961-14.973" transform="translate(-43.12 -293.65)" fill="none" stroke="#840032" stroke-linecap="round" stroke-linejoin="round" stroke-width="2"/>
      </g>
      <g transform="matrix(1, 0, 0, 1, -10, -7)" filter="url(#Path_18)">
        <path id="Path_18-2" data-name="Path 18" d="M78.158,317.028,72.991,332l-.738,1.892-1.078.978H68.19l13.459-34.225,13.595,34.361h-2.82l-1.234-1.114L90.332,332l-4.961-14.973" transform="translate(-58.19 -293.65)" fill="none" stroke="#fff" stroke-linecap="round" stroke-linejoin="round" stroke-width="2"/>
      </g>
    </g>
  </g>
</svg>
